<svg width="599" height="269" viewBox="0 0 599 269" fill="none" xmlns="http://www.w3.org/2000/svg">
<path d="M96.896 43.056V126H94.72L47.104 37.808V116.784C47.104 119.856 47.9147 121.989 49.536 123.184C51.2427 124.379 54.272 124.976 58.624 124.976V126H35.456V124.976C39.4667 124.976 42.1973 124.379 43.648 123.184C45.0987 121.989 45.824 119.856 45.824 116.784V35.504H36.096V34.48H59.776L95.616 102.576V43.056C95.616 40.1547 94.6347 38.192 92.672 37.168C90.7947 36.0587 87.7227 35.504 83.456 35.504V34.48H107.136V35.504C103.211 35.504 100.523 36.0587 99.072 37.168C97.6213 38.2773 96.896 40.24 96.896 43.056ZM169.255 105.136H170.535V126H114.471V124.976H124.199V35.504H114.471V34.48H169.895V55.344H168.615C168.615 49.8827 167.548 45.232 165.415 41.392C163.367 37.4667 160.252 35.504 156.071 35.504H136.743V80.304H146.087C151.036 80.304 155.772 78.1707 160.295 73.904V87.728C155.943 83.4613 151.207 81.328 146.087 81.328H136.743V124.976H156.711C160.892 124.976 164.007 123.056 166.055 119.216C168.188 115.291 169.255 110.597 169.255 105.136ZM179.096 35.504V34.48H209.688C219.672 34.48 227.139 36.5707 232.088 40.752C237.123 44.848 239.64 50.3093 239.64 57.136C239.64 63.6213 237.635 68.8693 233.624 72.88C229.699 76.8053 224.664 79.1947 218.52 80.048C222.104 80.9013 225.005 82.3947 227.224 84.528C229.528 86.6613 231.491 90.1173 233.112 94.896L238.232 109.36C240.451 115.931 242.499 120.155 244.376 122.032C246.253 123.909 249.069 124.891 252.824 124.976V126H245.272C240.152 126 236.141 125.061 233.24 123.184C230.339 121.307 227.949 117.723 226.072 112.432L219.288 91.696C217.923 88.0267 216.301 85.3387 214.424 83.632C212.632 81.84 209.987 80.944 206.488 80.944V80.304H210.328C215.96 80.304 220.099 78.256 222.744 74.16C225.475 69.9787 226.84 64.4747 226.84 57.648C226.84 54.4907 226.627 51.7173 226.2 49.328C225.773 46.9387 224.963 44.6347 223.768 42.416C222.573 40.1973 220.781 38.5333 218.392 37.424C216.088 36.2293 213.187 35.632 209.688 35.632H201.368V124.976H211.096V126H179.096V124.976H188.824V35.504H179.096ZM265.27 124.976V126H245.174V124.976C248.587 124.976 250.934 124.592 252.214 123.824C253.494 123.056 254.561 121.349 255.414 118.704L282.934 33.2H285.11L314.806 124.976H322.23V126H293.174V124.976H301.494C301.238 123.611 300.811 121.904 300.214 119.856L292.662 96.432H263.99L256.566 119.216C256.225 120.496 256.054 121.52 256.054 122.288C256.054 123.227 256.438 123.909 257.206 124.336C257.974 124.763 259.51 124.976 261.814 124.976H265.27ZM264.374 95.408H292.406L278.582 50.864L264.374 95.408Z" fill="white"/>
<path d="M357.633 124.768V126H319.133V124.768H330.837V17.122H319.133V15.89H357.633V17.122H345.929V124.768H357.633ZM388.433 20.202C388.433 18.1487 386.38 17.122 382.273 17.122H375.343V15.89H406.759V17.122H404.141C399.829 17.122 396.544 17.7893 394.285 19.124C392.129 20.356 389.768 22.7173 387.201 26.208L360.867 59.78C365.282 60.6013 369.183 62.706 372.571 66.094C375.959 69.3793 379.039 74.564 381.811 81.648L391.821 105.98C395.209 114.193 397.827 119.378 399.675 121.534C401.626 123.69 404.808 124.768 409.223 124.768V126H400.137C393.669 126 388.895 124.973 385.815 122.92C382.838 120.764 379.963 116.452 377.191 109.984L366.873 84.882C362.869 75.4367 357.53 70.4573 350.857 69.944L385.045 26.516C387.304 23.6413 388.433 21.5367 388.433 20.202Z" fill="#FFC839"/>
<path d="M98.048 188.792C98.048 205.005 95.4453 216.995 90.24 224.76C85.12 232.44 77.3973 236.28 67.072 236.28C56.7467 236.28 48.9813 232.44 43.776 224.76C38.656 216.995 36.1387 205.005 36.224 188.792C36.224 172.835 38.784 161.101 43.904 153.592C49.024 145.997 56.7467 142.2 67.072 142.2C77.3973 142.2 85.12 145.997 90.24 153.592C95.4453 161.101 98.048 172.835 98.048 188.792ZM84.864 188.792C84.864 171.64 83.5413 159.779 80.896 153.208C78.336 146.552 73.6853 143.224 66.944 143.224C60.288 143.224 55.68 146.552 53.12 153.208C50.56 159.779 49.28 171.64 49.28 188.792C49.28 206.285 50.56 218.403 53.12 225.144C55.7653 231.885 60.416 235.256 67.072 235.256C73.728 235.256 78.336 231.885 80.896 225.144C83.5413 218.403 84.864 206.285 84.864 188.792ZM170.093 211.192C170.093 218.872 167.149 224.76 161.261 228.856C155.458 232.952 147.522 235 137.453 235H106.221V233.976H115.949V144.504H106.221V143.48H134.253C145.09 143.48 153.069 145.571 158.189 149.752C163.309 153.933 165.869 159.309 165.869 165.88C165.869 172.877 163.736 178.211 159.469 181.88C155.202 185.549 149.997 187.811 143.853 188.664C151.789 189.261 158.146 191.395 162.925 195.064C167.704 198.648 170.093 204.024 170.093 211.192ZM128.493 144.504V188.28H136.941C142.658 188.28 146.882 186.317 149.613 182.392C152.429 178.381 153.837 173.048 153.837 166.392C153.837 163.235 153.581 160.504 153.069 158.2C152.642 155.896 151.789 153.635 150.509 151.416C149.229 149.112 147.224 147.405 144.493 146.296C141.762 145.101 138.349 144.504 134.253 144.504H128.493ZM138.221 189.304H128.493V233.976H137.453C143.853 233.976 148.76 231.928 152.173 227.832C155.672 223.736 157.421 218.104 157.421 210.936C157.421 204.536 155.672 199.331 152.173 195.32C148.76 191.309 144.109 189.304 138.221 189.304ZM207.643 183.544C214.299 188.664 219.206 193.443 222.363 197.88C225.52 202.317 227.099 207.395 227.099 213.112C227.099 220.451 224.71 226.168 219.931 230.264C215.152 234.275 208.795 236.28 200.859 236.28C197.787 236.28 194.416 235.939 190.747 235.256C187.078 234.659 184.816 234.36 183.963 234.36C182.683 234.36 181.403 234.573 180.123 235H179.227V212.728H180.507C180.934 220.579 182.854 226.296 186.267 229.88C189.766 233.379 194.587 235.128 200.731 235.128C206.022 235.128 210.032 233.677 212.763 230.776C215.579 227.789 216.987 224.035 216.987 219.512C216.987 214.648 215.664 210.381 213.019 206.712C210.459 203.043 205.894 198.691 199.323 193.656C192.667 188.536 187.76 183.8 184.603 179.448C181.446 175.011 179.867 169.976 179.867 164.344C179.867 157.432 182.256 152.013 187.035 148.088C191.814 144.163 198.043 142.2 205.723 142.2C208.624 142.2 211.526 142.499 214.427 143.096C217.414 143.693 219.419 143.992 220.443 143.992C221.894 143.992 223.131 143.821 224.155 143.48H225.051V163.96H223.771C222.918 156.195 221.211 150.861 218.651 147.96C216.091 144.973 211.91 143.48 206.107 143.48C200.646 143.48 196.592 144.888 193.947 147.704C191.302 150.52 189.979 154.104 189.979 158.456C189.979 163.235 191.216 167.331 193.691 170.744C196.251 174.157 200.902 178.424 207.643 183.544ZM290.38 214.136H291.66V235H235.596V233.976H245.324V144.504H235.596V143.48H291.02V164.344H289.74C289.74 158.883 288.673 154.232 286.54 150.392C284.492 146.467 281.377 144.504 277.196 144.504H257.868V189.304H267.212C272.161 189.304 276.897 187.171 281.42 182.904V196.728C277.068 192.461 272.332 190.328 267.212 190.328H257.868V233.976H277.836C282.017 233.976 285.132 232.056 287.18 228.216C289.313 224.291 290.38 219.597 290.38 214.136ZM300.221 144.504V143.48H330.813C340.797 143.48 348.264 145.571 353.213 149.752C358.248 153.848 360.765 159.309 360.765 166.136C360.765 172.621 358.76 177.869 354.749 181.88C350.824 185.805 345.789 188.195 339.645 189.048C343.229 189.901 346.13 191.395 348.349 193.528C350.653 195.661 352.616 199.117 354.237 203.896L359.357 218.36C361.576 224.931 363.624 229.155 365.501 231.032C367.378 232.909 370.194 233.891 373.949 233.976V235H366.397C361.277 235 357.266 234.061 354.365 232.184C351.464 230.307 349.074 226.723 347.197 221.432L340.413 200.696C339.048 197.027 337.426 194.339 335.549 192.632C333.757 190.84 331.112 189.944 327.613 189.944V189.304H331.453C337.085 189.304 341.224 187.256 343.869 183.16C346.6 178.979 347.965 173.475 347.965 166.648C347.965 163.491 347.752 160.717 347.325 158.328C346.898 155.939 346.088 153.635 344.893 151.416C343.698 149.197 341.906 147.533 339.517 146.424C337.213 145.229 334.312 144.632 330.813 144.632H322.493V233.976H332.221V235H300.221V233.976H309.949V144.504H300.221ZM495.766 214.136H497.046V235H440.982V233.976H450.71V144.504H440.982V143.48H496.406V164.344H495.126C495.126 158.883 494.059 154.232 491.926 150.392C489.878 146.467 486.763 144.504 482.582 144.504H463.254V189.304H472.598C477.547 189.304 482.283 187.171 486.806 182.904V196.728C482.454 192.461 477.718 190.328 472.598 190.328H463.254V233.976H483.222C487.403 233.976 490.518 232.056 492.566 228.216C494.699 224.291 495.766 219.597 495.766 214.136ZM492.807 144.504V143.48H523.399C533.383 143.48 540.85 145.571 545.799 149.752C550.834 153.848 553.351 159.309 553.351 166.136C553.351 172.621 551.346 177.869 547.335 181.88C543.41 185.805 538.375 188.195 532.231 189.048C535.815 189.901 538.716 191.395 540.935 193.528C543.239 195.661 545.202 199.117 546.823 203.896L551.943 218.36C554.162 224.931 556.21 229.155 558.087 231.032C559.964 232.909 562.78 233.891 566.535 233.976V235H558.983C553.863 235 549.852 234.061 546.951 232.184C544.05 230.307 541.66 226.723 539.783 221.432L532.999 200.696C531.634 197.027 530.012 194.339 528.135 192.632C526.343 190.84 523.698 189.944 520.199 189.944V189.304H524.039C529.671 189.304 533.81 187.256 536.455 183.16C539.186 178.979 540.551 173.475 540.551 166.648C540.551 163.491 540.338 160.717 539.911 158.328C539.484 155.939 538.674 153.635 537.479 151.416C536.284 149.197 534.492 147.533 532.103 146.424C529.799 145.229 526.898 144.632 523.399 144.632H515.079V233.976H524.807V235H492.807V233.976H502.535V144.504H492.807Z" fill="white"/>
<path d="M361.45 126.122V124.89H396.408V126.122H386.552C386.655 127.97 387.168 130.229 388.092 132.898L413.194 214.518L439.066 132.59C439.477 131.358 439.682 130.229 439.682 129.202C439.682 127.149 437.834 126.122 434.138 126.122H426.438V124.89H452.772V126.122C448.46 126.122 445.534 126.635 443.994 127.662C442.557 128.586 441.376 130.588 440.452 133.668L407.958 236.54H405.34L370.074 126.122H361.45Z" fill="#FFC839"/>
</svg>
